# xmcd
#
# Track frame offsets:
#	150
#	15482
#	31963
#	48556
#	62590
#	82288
#	100728
#	117129
#	132568
#	146120
#	164425
#	178374
#
# Disc length: 2521 seconds
#
# Revision: 1
# Processed by: cddbd v1.4PL0 Copyright (c) Steve Scherf et al.
# Submitted via: EasyCDDAExtractor 6.0.0.1
#
DISCID=ac09d70c
DTITLE=Various Artist - The Well Hungarians
DYEAR=2003
DGENRE=Country Rock
TTITLE0=Rock and Roll Singer
TTITLE1=Legs For Days
TTITLE2=Sorry About the Mess
TTITLE3=Southern Peaches
TTITLE4=Winfield Ferry
TTITLE5=Getaway Car
TTITLE6=Betty Rides Around
TTITLE7=Momma Was A Train
TTITLE8=She Ain't You
TTITLE9=Get Along
TTITLE10=In the Mornin'
TTITLE11=The Well Hungarians - Helplessly Hoping
EXTD=
EXTT0=
EXTT1=
EXTT2=
EXTT3=
EXTT4=
EXTT5=
EXTT6=
EXTT7=
EXTT8=
EXTT9=
EXTT10=
EXTT11=
PLAYORDER=
